<svg width="15" height="18" viewBox="0 0 15 18" fill="none" xmlns="http://www.w3.org/2000/svg">
<g style="mix-blend-mode:screen">
<path fill-rule="evenodd" clip-rule="evenodd" d="M8.39146 16.9505C9.90401 16.1098 14.9809 12.8907 14.9809 7.55806C14.9809 3.42835 11.8425 0.0805664 7.97115 0.0805664C4.09979 0.0805664 0.961426 3.42835 0.961426 7.55806C0.961426 12.8907 6.03828 16.1098 7.55084 16.9505C7.81522 17.0975 8.12708 17.0975 8.39146 16.9505ZM7.97114 10.7626C9.63029 10.7626 10.9753 9.32785 10.9753 7.55798C10.9753 5.78811 9.63029 4.35334 7.97114 4.35334C6.31198 4.35334 4.96697 5.78811 4.96697 7.55798C4.96697 9.32785 6.31198 10.7626 7.97114 10.7626Z" fill="#FA1138"/>
</g>
</svg>
