<svg width="25" height="28" viewBox="0 0 25 28" fill="none" xmlns="http://www.w3.org/2000/svg">
<path fill-rule="evenodd" clip-rule="evenodd" d="M7.28884 12.8616C7.01526 12.6657 6.87846 12.5678 6.74267 12.5557C6.62358 12.5451 6.50462 12.5775 6.40738 12.6471C6.2965 12.7264 6.2283 12.8802 6.09189 13.1877L0.324504 26.1919L0.324502 26.1919C0.0814161 26.7401 -0.0401264 27.0141 0.0118626 27.1903C0.0569809 27.3433 0.172339 27.4655 0.322405 27.5194C0.495325 27.5815 0.77596 27.4761 1.33723 27.2651L11.9845 23.2639C12.0886 23.2248 12.1407 23.2052 12.1943 23.1975C12.2418 23.1906 12.29 23.1906 12.3375 23.1975C12.3911 23.2052 12.4432 23.2248 12.5473 23.2639L23.1946 27.2651C23.7558 27.4761 24.0365 27.5815 24.2094 27.5194C24.3595 27.4655 24.4748 27.3433 24.5199 27.1903C24.5719 27.0141 24.4504 26.7401 24.2073 26.1919L18.4399 13.1877C18.3035 12.8802 18.2353 12.7264 18.1244 12.6471C18.0272 12.5775 17.9082 12.5451 17.7891 12.5557C17.6533 12.5678 17.5165 12.6657 17.243 12.8616L12.848 16.0075C12.4999 16.2566 12.0319 16.2566 11.6838 16.0075L7.28884 12.8616ZM7.58225 9.82731C7.48811 10.0396 7.44104 10.1457 7.44027 10.2497C7.4396 10.3414 7.46416 10.4315 7.51126 10.5102C7.56468 10.5994 7.65909 10.667 7.84791 10.8022L11.8003 13.6313C11.9678 13.7512 12.0515 13.8111 12.1429 13.8343C12.2236 13.8548 12.3082 13.8548 12.3889 13.8343C12.4803 13.8111 12.564 13.7512 12.7315 13.6313L16.6839 10.8022C16.8727 10.667 16.9671 10.5994 17.0205 10.5102C17.0676 10.4315 17.0922 10.3414 17.0915 10.2497C17.0908 10.1457 17.0437 10.0396 16.9495 9.82731L12.9972 0.915642C12.7657 0.393556 12.6499 0.132513 12.4885 0.0522724C12.3483 -0.0174241 12.1835 -0.0174241 12.0433 0.0522724C11.8819 0.132513 11.7661 0.393556 11.5346 0.91564L7.58225 9.82731Z" fill="#F21137"/>
</svg>
