<svg width="15" height="15" viewBox="0 0 15 15" fill="none" xmlns="http://www.w3.org/2000/svg">
<path d="M3.31059 8.96143L2.79065 10.8887L0.889594 10.9284C0.314849 9.86545 0.00959397 8.67955 0.000222502 7.47324C-0.00914896 6.26692 0.277645 5.0765 0.835808 4.00488L2.52829 4.31274L3.26816 5.98134C2.93464 6.94944 2.94943 8.00234 3.30999 8.96084L3.31059 8.96143Z" fill="#FBBB00"/>
<path d="M14.8093 6.02881C15.0626 7.35088 14.9485 8.71643 14.4793 9.97906C14.0102 11.2417 13.2037 12.3538 12.1463 13.1961L10.0146 13.0882L9.71575 11.2191C10.5954 10.7075 11.2715 9.91188 11.6311 8.96502H7.6366V6.03178H14.8123L14.8093 6.02881Z" fill="#518EF8"/>
<path d="M12.146 13.1962C11.2912 13.8776 10.2959 14.3639 9.23056 14.6206C8.16522 14.8774 7.05602 14.8982 5.98165 14.6818C4.90728 14.4653 3.89409 14.0167 3.01397 13.368C2.13384 12.7192 1.40837 11.8862 0.889023 10.9279L3.31001 8.96094C3.53733 9.56232 3.89427 10.1072 4.35587 10.5574C4.81746 11.0075 5.37257 11.3522 5.98237 11.5672C6.59217 11.7822 7.24194 11.8624 7.88623 11.8022C8.53052 11.742 9.15377 11.5428 9.71241 11.2186L12.146 13.1962Z" fill="#28B446"/>
<path d="M12.2373 1.70761L9.81753 3.67398C9.25067 3.32381 8.61158 3.10499 7.94777 3.03376C7.28396 2.96254 6.6125 3.04075 5.98335 3.26259C5.35419 3.48442 4.7835 3.84417 4.31373 4.31509C3.84395 4.78601 3.48717 5.35597 3.26992 5.98261L0.834579 4.00497C1.34782 3.02127 2.07662 2.16423 2.96741 1.49681C3.85819 0.829389 4.88833 0.368562 5.98212 0.148192C7.0759 -0.0721773 8.20554 -0.046489 9.28801 0.22337C10.3705 0.493228 11.3783 1.0004 12.2373 1.70761Z" fill="#F14336"/>
</svg>